<?xml version="1.0" standalone="no"?>
<!DOCTYPE svg PUBLIC "-//W3C//DTD SVG 20010904//EN"
 "http://www.w3.org/TR/2001/REC-SVG-20010904/DTD/svg10.dtd">
<svg version="1.0" xmlns="http://www.w3.org/2000/svg"
 width="400.000000pt" height="400.000000pt" viewBox="0 0 400.000000 400.000000"
 preserveAspectRatio="xMidYMid meet">
<metadata>
Created by potrace 1.11, written by Peter Selinger 2001-2013
</metadata>
<g transform="translate(0.000000,400.000000) scale(0.100000,-0.100000)"
fill="#000000" stroke="none">
<path d="M1815 3550 c-27 -4 -68 -10 -90 -14 -49 -8 -221 -54 -244 -66 -9 -4
-56 -25 -105 -46 -199 -85 -444 -282 -578 -465 -140 -190 -253 -448 -283 -646
-3 -21 -9 -63 -14 -93 -9 -55 -8 -357 2 -395 2 -11 8 -40 12 -65 12 -75 14
-80 46 -184 43 -140 143 -343 211 -431 4 -5 28 -37 54 -70 55 -72 185 -199
263 -259 203 -155 427 -249 692 -290 93 -15 357 -15 424 -1 17 3 64 13 105 21
193 40 415 143 583 271 82 64 205 186 274 274 51 65 157 231 158 248 1 3 11
25 23 47 48 93 104 284 127 434 19 126 13 380 -13 508 -81 398 -310 750 -629
966 -62 41 -135 87 -163 101 -120 61 -304 123 -414 141 -21 3 -48 8 -60 10
-38 9 -330 12 -381 4z"/>
</g>
</svg>
